<?xml version="1.0" standalone="yes"?>
<svg xmlns="http://www.w3.org/2000/svg" width="612" height="441">
<path style="fill:#b6e1e4; stroke:none;" d="M0 0L0 441L612 441L612 0L0 0z"/>
<path style="fill:#fbb630; stroke:none;" d="M259 164L259 236L260 271L261 271C255.351 247.271 260 217.405 260 193C260 184.466 262.306 171.879 259 164z"/>
<path style="fill:#f47863; stroke:none;" d="M260 164L260 270L283 270L283 164L260 164z"/>
<path style="fill:#fbb630; stroke:none;" d="M283 164L283 270L284 270L284 196L283 164z"/>
<path style="fill:#39acca; stroke:none;" d="M404 270L428 270L428 164C423.14 164 408.253 161.532 405.028 165.603C401.094 170.57 404 186.777 404 193L404 270M72 165L72 184L101 184L101 270L124 270L124 208C124 202.731 121.636 189.571 125.603 185.603C130.129 181.078 146.865 184 153 184L153 165L72 165z"/>
<path style="fill:#fbb630; stroke:none;" d="M166 279L190 279L191 237C195.909 238.451 201.455 237.186 205.96 240.009C215.96 246.276 218.133 268.276 221 279L241 279C239.326 257.788 238.75 244.168 224 228C242.36 224.448 246.792 192.833 233.671 181.428C226.911 175.553 218.595 173.835 210 172.718C202.082 171.689 181.258 168.753 174.603 174.028C171.05 176.844 173.251 186.736 171.517 191C160.952 216.981 166 250.623 166 279z"/>
<path style="fill:#9a87be; stroke:none;" d="M303 173L303.329 198L329 279C335.675 279 350.949 281.863 356.49 277.972C361.268 274.617 362.926 262.346 364.67 257C371.007 237.577 380.092 217.99 384.331 198C385.297 193.444 387.428 177.221 383.397 174.028C380.315 171.587 369.495 172.1 367.139 175.318C359.106 186.289 357.198 207.94 353.28 221C349.979 232.005 345.916 243.492 345 255L344 255L322 173L303 173z"/>
<path style="fill:#fbb630; stroke:none;" d="M473 173L472 179L473 179L475 173L473 173z"/>
<path style="fill:#f47863; stroke:none;" d="M475 173C459.832 205.433 451.415 244.067 447 279C451.794 279 461.465 280.843 465.181 277.258C471.492 271.169 467.625 258.409 474.43 252.603C477.516 249.97 483.245 251 487 251C491.465 251 498.816 249.623 502.772 252.028C508.59 255.564 511.061 272.62 512 279L537 278L513.67 202L504.272 175.028L475 173z"/>
<path style="fill:#fbb630; stroke:none;" d="M476 173L477 174L476 173M479 173L479 174L505 174L479 173M505.333 174.667L505.667 175.333L505.333 174.667M476 175L477 176L476 175M506.333 178.667L506.667 179.333L506.333 178.667M507 180L507 183L508 183L507 180M471 181L472 182L471 181M470 183L470 186L471 186L470 183M506 184L507 185L506 184M508.333 184.667L508.667 185.333L508.333 184.667M469.333 187.667L469.667 188.333L469.333 187.667M509.333 187.667L509.667 188.333L509.333 187.667z"/>
<path style="fill:#b6e1e4; stroke:none;" d="M190 220C195.186 220 200.926 220.677 206 219.468C224.192 215.133 220.334 192.037 203 190.174C199.858 189.836 193.298 188.937 191.028 191.742C186.977 196.749 190 213.642 190 220z"/>
<path style="fill:#fbb630; stroke:none;" d="M468.333 190.667L468.667 191.333L468.333 190.667M488 190L488 192L490 192L488 190M504.333 190.667L504.667 191.333L504.333 190.667M510 190L510 193L511 193L510 190z"/>
<path style="fill:#b6e1e4; stroke:none;" d="M488 192L478 234L500 234C498.984 222.366 494.204 201.874 488 192z"/>
<path style="fill:#fbb630; stroke:none;" d="M487.333 193.667L487.667 194.333L487.333 193.667M489.333 193.667L489.667 194.333L489.333 193.667M511.333 193.667L511.667 194.333L511.333 193.667M467 194L468 195L467 194M466 196L466 199L467 199L466 196M486 196L486 199L487 199L486 196M490.333 196.667L490.667 197.333L490.333 196.667M512.333 197.667L512.667 198.333L512.333 197.667M465.333 200.667L465.667 201.333L465.333 200.667M513.333 200.667L513.667 201.333L513.333 200.667M491.333 201.667L491.667 202.333L491.333 201.667M485.333 202.667L485.667 203.333L485.333 202.667M464.333 203.667L464.667 204.333L464.333 203.667M514.333 203.667L514.667 204.333L514.333 203.667M492.333 204.667L492.667 205.333L492.333 204.667M484 205L484 208L485 208L484 205M515.333 206.667L515.667 207.333L515.333 206.667M463 207L464 208L463 207M466 207L467 208L466 207M493 209L494 210L493 209M462 210L463 211L462 210M483.333 210.667L483.667 211.333L483.333 210.667M516 210L517 211L516 210M482 212L482 216L483 216L482 212M494.333 212.667L494.667 213.333L494.333 212.667M517 212L517 215L518 215L517 212M461.333 213.667L461.667 214.333L461.333 213.667M460.333 216.667L460.667 217.333L460.333 216.667M518 216L518 219L519 219L518 216M481.333 217.667L481.667 218.333L481.333 217.667M459.333 219.667L459.667 220.333L459.333 219.667M496 219L497 224L498 224L496 219M519.333 219.667L519.667 220.333L519.333 219.667M480.333 220.667L480.667 221.333L480.333 220.667M458 223L459 224L458 223M517 223L518 224L517 223M520 223L521 224L520 223M462 224L463 225L462 224M479.333 224.667L479.667 225.333L479.333 224.667M498.333 225.667L498.667 226.333L498.333 225.667M457.333 226.667L457.667 227.333L457.333 226.667M521.333 226.667L521.667 227.333L521.333 226.667M478 227L478 230L479 230L478 227M456.333 229.667L456.667 230.333L456.333 229.667M499 229L500 230L499 229M522 229L523 230L522 229M477 231L476 234L477 231M455 232L455 235L456 235L455 232M472 232L473 233L472 232M500.333 232.667L500.667 233.333L500.333 232.667M523 232L523 235L524 235L523 232M478.667 234.333L479.333 234.667L478.667 234.333M498.667 234.333L499.333 234.667L498.667 234.333M524 235L524 238L525 238L524 235M454.333 236.667L454.667 237.333L454.333 236.667M525 238L525 241L526 241L525 238M452.333 242.667L452.667 243.333L452.333 242.667M526.333 242.667L526.667 243.333L526.333 242.667M451.333 245.667L451.667 246.333L451.333 245.667M527 245L528 246L527 245M450 248L450 251L451 251L450 248M528.333 248.667L528.667 249.333L528.333 248.667M474 251L474 252L504 252L474 251M529 251L529 254L530 254L529 251M449.333 252.667L449.667 253.333L449.333 252.667M473 252L474 253L473 252M504.333 252.667L504.667 253.333L504.333 252.667M472.333 254.667L472.667 255.333L472.333 254.667M505.333 254.667L505.667 255.333L505.333 254.667M530.333 254.667L530.667 255.333L530.333 254.667M448 255L449 256L448 255M510 255L511 256L510 255M471 258L470 264L471 264L471 258M506.333 258.667L506.667 259.333L506.333 258.667M531.333 258.667L531.667 259.333L531.333 258.667M507 261L507 264L508 264L507 261M532 261L533 262L532 261M509 264L510 265L509 264M533.333 264.667L533.667 265.333L533.333 264.667M469.333 265.667L469.667 266.333L469.333 265.667M508.333 265.667L508.667 266.333L508.333 265.667M534 267L534 270L535 270L534 267M509.333 268.667L509.667 269.333L509.333 268.667M468.333 269.667L468.667 270.333L468.333 269.667M535.333 270.667L535.667 271.333L535.333 270.667M510.333 272.667L510.667 273.333L510.333 272.667M467.333 273.667L467.667 274.333L467.333 273.667M447.333 274.667L447.667 275.333L447.333 274.667M536.333 274.667L536.667 275.333L536.333 274.667M466 275L466 278L467 278L466 275M511 275L512 276L511 275M446.333 277.667L446.667 278.333L446.333 277.667M537 277L536 279L538 279L537 277M464.667 278.333L465.333 278.667L464.667 278.333z"/>
</svg>
